<?xml version="1.0" encoding="UTF-8"?>
<svg id="Layer_1" data-name="Layer 1" xmlns="http://www.w3.org/2000/svg" viewBox="0 0 667.3 343">
  <defs>
    <style>
      .cls-1 {
        fill: #61c89f;
      }
    </style>
  </defs>
  <g>
    <path id="path12" d="M101.5,66.5h34.3c1.4,0,2.5,1.1,2.5,2.5v25.9c0,6.1-.6,11.6-.6,11.6h.6c7.4-23.5,27-42.2,52.2-42.2,1.8,0,3.6,.1,5,.3,1.4,.2,2.4,1.3,2.4,2.7v34.8c0,1.6-1.4,2.9-3,2.7-1.7-.1-4-.3-6.7-.3-17.4,0-37,10-44.8,34.5-2.6,8-3.5,17.1-3.5,26.7v62.6c0,1.4-1.1,2.5-2.5,2.5h-36c-1.4,0-2.5-1.1-2.5-2.5V69c.1-1.4,1.2-2.5,2.6-2.5"/>
    <path id="path14" d="M311.6,130.4c-.7-22.2-14.5-34.1-32.5-34.1-20.9,0-35.4,12.9-39.3,34.1h71.8Zm-31.5-65.7c47.3,0,72.8,34.5,72.8,77.9,0,3-.4,8.3-.7,12-.2,2.1-2,3.8-4.1,3.8h-109.5c2.6,28.7,24.8,43.5,49.3,43.5,20.4,0,37.5-10.8,44.3-15.7,1.5-1.1,3.7-.4,4.2,1.4l8.6,27.6c.4,1.4,0,2.8-1.1,3.7-5.7,4.6-25.1,17.7-58.8,17.7-54.4,0-88.2-39.3-88.2-86-.2-50.5,34.2-85.9,83.2-85.9"/>
    <path id="path16" d="M557,183.4c1.2-1.8,3.6-2.2,5.3-.8,6.2,5,21.5,15.4,41.8,15.4,11.6,0,21.6-5.2,21.6-14.8,0-24.5-79.9-21.3-79.9-74.1,0-30.6,27.4-48.3,62.8-48.3,30.1,0,47.7,12.4,53.2,17,1.1,1,1.5,2.5,.8,3.9l-12,24.1c-1,2-3.5,2.7-5.4,1.4-5.8-4.1-18.7-11.5-36.9-11.5-10.6,0-20.9,4.5-20.9,14.8,0,23.2,79.9,20.3,79.9,73.1,0,27.4-23.8,49.3-62.8,49.3-33.9,0-55.4-16.6-61.8-22.3-1.2-1.1-1.4-2.8-.5-4.1l14.8-23.1"/>
    <path id="path20" d="M404,.3h-33.9c-1.8,0-3.3,1.5-3.3,3.3V227.2c0,1.8,1.5,3.3,3.3,3.3h33.9c1.8,0,3.3-1.5,3.3-3.3V3.6c.1-1.8-1.4-3.3-3.3-3.3"/>
    <path id="path22" d="M464.3,.3h-33.9c-1.8,0-3.3,1.5-3.3,3.3V227.2c0,1.8,1.5,3.3,3.3,3.3h33.9c1.8,0,3.3-1.5,3.3-3.3V3.6c0-1.8-1.5-3.3-3.3-3.3"/>
    <g>
      <path id="path18" d="M489.3,68.5h36c1.4,0,2.5,1.1,2.5,2.5V228.3c0,1.4-1.1,2.5-2.5,2.5h-36c-1.4,0-2.5-1.1-2.5-2.5V71c0-1.4,1.1-2.5,2.5-2.5"/>
      <path id="path24" class="cls-1" d="M530.4,23.1c0,12.8-10.3,23.1-23.1,23.1s-23.1-10.3-23.1-23.1S494.5,0,507.3,0s23.1,10.3,23.1,23.1"/>
    </g>
    <path id="path26" d="M2.5,19.9H38.5c1.4,0,2.5,1.1,2.5,2.5v44.8h34.9c1.4,0,2.5,1.1,2.5,2.5v27.6c0,1.4-1.1,2.5-2.5,2.5H41v63.8c0,27,21.2,30.9,32.5,30.9,2.3,0,4.1-.2,5.4-.3,1.1-.1,2,.7,2,1.7v29.9c0,2.2-1.6,4.1-3.9,4.3-2.1,.2-5.1,.4-8.7,.4-22.9,0-68.3-6.8-68.3-61.8V22.4c.1-1.3,1.2-2.5,2.5-2.5"/>
  </g>
  <g>
    <path id="path16-2" data-name="path16" d="M552.4,308.5c.3-.5,1-.6,1.5-.2,1.7,1.4,5.9,4.2,11.5,4.2,3.2,0,5.9-1.4,5.9-4.1,0-6.7-22-5.8-22-20.4,0-8.4,7.5-13.3,17.3-13.3,8.3,0,13.1,3.4,14.6,4.7,.3,.3,.4,.7,.2,1.1l-3.3,6.6c-.3,.5-1,.7-1.5,.4-1.6-1.1-5.2-3.2-10.2-3.2-2.9,0-5.8,1.2-5.8,4.1,0,6.4,22,5.6,22,20.1,0,7.5-6.6,13.6-17.3,13.6-9.3,0-15.2-4.6-17-6.1-.3-.3-.4-.8-.2-1.1l4.3-6.4"/>
    <path d="M134.4,276.4c-13,0-22.2,9.5-22.2,22.9,0,12.5,9,22.9,23.5,22.9,9,0,14.2-3.5,15.7-4.7,.3-.2,.4-.6,.3-1l-2.3-7.4c-.1-.5-.7-.7-1.1-.4-1.8,1.3-6.4,4.2-11.8,4.2-6.5,0-12.5-4-13.1-11.6h29.2c.6,0,1-.4,1.1-1,.1-1,.2-2.4,.2-3.2-.1-11.5-6.9-20.7-19.5-20.7Zm-10.7,17.5c1-5.7,4.9-9.1,10.5-9.1,4.8,0,8.5,3.2,8.7,9.1h-19.2Z"/>
    <path d="M521.5,276.2c-13,0-22.2,9.5-22.2,22.9,0,12.5,9,22.9,23.5,22.9,9,0,14.2-3.5,15.7-4.7,.3-.2,.4-.6,.3-1l-2.3-7.4c-.2-.5-.7-.7-1.1-.4-1.8,1.3-6.4,4.2-11.8,4.2-6.5,0-12.5-4-13.1-11.6h29.1c.6,0,1-.4,1.1-1,.1-1,.2-2.4,.2-3.2,0-11.5-6.8-20.7-19.4-20.7Zm-10.7,17.6c1-5.7,4.9-9.1,10.5-9.1,4.8,0,8.5,3.2,8.7,9.1h-19.2Z"/>
    <path d="M326.7,276.4h-1.6c-13,0-22.2,9.5-22.2,22.9,0,6.5,2.4,12.4,6.8,16.6,4,3.8,9.5,6.2,16.3,6.3,6.8-.1,12.3-2.5,16.3-6.3,4.4-4.2,6.8-10.2,6.8-16.6-.2-13.4-9.3-22.9-22.4-22.9Zm8.7,31.1c-1.8,2.4-4.7,4.1-7.8,4.5-.6,.1-1.1,.1-1.7,.1-3.8-.1-7.5-2-9.7-4.9-4.5-6-2.9-16.4,4.8-19.6,3.5-1.5,7.8-1.2,11.1,.6,4,2.3,6.1,6.8,6.1,11.1-.1,2.9-1,5.8-2.8,8.2Z"/>
    <path d="M399.9,276.4h-1.6c-13,0-22.2,9.5-22.2,22.9,0,6.5,2.4,12.4,6.8,16.6,4,3.8,9.5,6.2,16.3,6.3,6.8-.1,12.3-2.5,16.3-6.3,4.4-4.2,6.8-10.2,6.8-16.6-.2-13.4-9.4-22.9-22.4-22.9Zm8.6,31.1c-1.8,2.4-4.7,4.1-7.8,4.5-.6,.1-1.1,.1-1.7,.1-3.8-.1-7.5-2-9.7-4.9-4.5-6-2.9-16.4,4.8-19.6,3.5-1.5,7.8-1.2,11.1,.6,4,2.3,6.1,6.8,6.1,11.1-.1,2.9-.9,5.8-2.8,8.2Z"/>
    <path d="M171.9,293.9c1.9-5.5,6.9-8.2,12.4-8.2,.6,0,1.3,0,1.9,.1,4.6,.5,8.3,2.9,9.9,4.1,.4,.3,1,.1,1.1-.4l1.4-4.4,.9-3c.1-.4,0-.8-.3-1-1.5-1.2-6.7-4.7-15.7-4.7h-1.3c-12.7,0-21.7,8.9-22.2,21.7v2.4c.5,12.8,9.5,21.7,22.2,21.7h1.3c9,0,14.2-3.5,15.7-4.7,.3-.2,.4-.6,.3-1l-.9-3-1.4-4.4c-.1-.5-.7-.7-1.1-.4-1.6,1.2-5.3,3.5-9.9,4.1-.6,.1-1.2,.1-1.9,.1-5.5,0-10.6-2.8-12.4-8.2-.4-1-.6-2.1-.7-3.3v-4.1c.1-1.2,.3-2.3,.7-3.4Z"/>
    <path d="M367,260.9h-9c-.5,0-.9,.4-.9,.9v59.7c0,.5,.4,.9,.9,.9h9c.5,0,.9-.4,.9-.9v-59.7c-.1-.5-.5-.9-.9-.9Z"/>
    <path d="M105.5,312.6c-.3,0-.8,.1-1.4,.1-3,0-8.7-1-8.7-8.2v-17h9.3c.4,0,.7-.3,.7-.7v-7.4c0-.4-.3-.7-.7-.7h-9.3v-12c0-.4-.3-.7-.7-.7h-9.6c-.4,0-.6,.3-.6,.6v39c0,14.7,12.1,16.5,18.2,16.5,1,0,1.8-.1,2.3-.1,.6-.1,1-.6,1-1.2v-8c0-.1-.3-.3-.5-.2Z"/>
    <path d="M228.9,279.3c-.5,0-1.3-.1-2.1-.1h-.2c-.8,0-1.5,0-2.1,.1-1.5,.1-3.2,.4-4.9,.9v-16.9c0-.4-.3-.7-.7-.7h-9.6c-.4,0-.7,.3-.7,.6v32.1h0v26.9h11v-25.2c0-.5,0-1.1,.1-1.5,.4-3,1.9-4.6,3.6-5.6,2.1-1.1,4.8-1.1,6.9,0,2,1.1,3.7,3.2,3.7,7.1v25.2h10.9v-26.6c0-12.9-9.4-15.8-15.9-16.3Z"/>
    <path d="M289.2,282.1c-5.5-4.6-11.8-3.8-11.8-3.8-8.1,.6-11.8,9.6-12.1,10.7v-9.9c0-.4-.3-.7-.7-.7h-9.2c-.4,0-.7,.3-.7,.7v42.5c0,.4,.3,.7,.7,.7h9.6c.4,0,.7-.3,.7-.7v-16.7c0-2.6,.3-5,1-7.1,1.2-3.9,3.7-6.5,6.4-7.9,.2-.1,.3-.2,.5-.2,.6-.3,1.3-.5,2-.7h0c1.7-.3,3.5,.1,5,.9,.5,.3,1,.6,1.4,1,1.4,1.2,2.3,3.2,2.3,6.2v25.2h10.9v-27.4c-.1-4.9-2.2-9.7-6-12.8Z"/>
    <path d="M468.9,277.5h-9.7c-.4,0-.7,.2-.7,.5v.2c-2.5-1.2-5.5-1.8-8.6-1.8h-1.4c-3.2,0-6.1,.6-8.6,1.8-6.7,3.1-11,9.8-11,18.4h0c0,5.7,2.1,11,6,14.7,2.5,2.4,5.8,4.2,9.7,5,1.5,.3,3,.5,4.7,.5,3.4,0,6.5-.8,9.1-2v1.5l-.2,7.4c0,1.8-.6,3.5-1.7,4.8h0c-1.8,2.3-4.5,4-7.6,4.4-.5,.1-1.1,.1-1.6,.1h-.4c-1.6-.1-7.5-.7-12.4-4.7-.3-.2-.7-.1-.8,.2l-3.4,6.4c-.1,.2-.1,.4,.1,.6,.4,.5,.8,.9,1.3,1.4,3.8,3.7,9.2,6,15.8,6.1,.6,0,1.2,0,1.8-.1,5.8-.5,10.5-2.7,14-6l.8-.8,.2-.2c.5-.5,.9-.9,1.3-1.4,2.8-3.3,4.2-7.6,4.2-12.2v-44.3c-.3-.2-.6-.5-.9-.5Zm-29.1,13.4c1.1-2,2.7-3.6,5-4.6,3.1-1.3,6.9-1.1,9.8,.6,1.7,1,3.1,2.5,4,4.1,1,1.8,1.4,3.7,1.4,5.7,0,2.5-.8,5.1-2.4,7.2-1.6,2.1-4.1,3.6-6.9,4-.5,.1-1,.1-1.5,.1-.8,0-1.5-.1-2.3-.3-2.5-.6-4.8-2.1-6.3-4-.2-.3-.4-.6-.6-.9-2.1-3.6-2.2-8.3-.2-11.9Z"/>
    <g>
      <path id="path18-2" data-name="path18" d="M479.9,280.6h9.5c.4,0,.7,.3,.7,.6v40.2c0,.3-.3,.6-.7,.6h-9.5c-.4,0-.7-.3-.7-.6v-40.2c.1-.3,.4-.6,.7-.6"/>
      <path id="path24-2" data-name="path24" d="M490.8,269c0,3.3-2.7,5.9-6.1,5.9s-6.1-2.6-6.1-5.9,2.7-5.9,6.1-5.9,6.1,2.7,6.1,5.9"/>
    </g>
  </g>
</svg>